#Comment line ignore any data following # character 
#Hierarchical Translation and Rotation (.htr) file 
[Header]	
#Header keywords are followed by a single value 
FileType HTR		#Single word string
DataType HTRS		#Translation followed by rotation and scale data
FileVersion 1		#integer
NumSegments 84		#integer
NumFrames 2		#integer
DataFrameRate 30		#integer, data frame rate in this file
EulerRotationOrder ZYX
CalibrationUnits mm
RotationUnits Degrees
GlobalAxisofGravity Y
BoneLengthAxis Y
ScaleFactor 1.00
[SegmentNames&Hierarchy]
#CHILD	PARENT
MASTER GLOBAL
root MASTER
chest root
L_mid_tent01 root
R_mid_tent01 root
spine01 root
Bip01_Neck chest
L_humerus chest
R_humerus chest
weapon_bone chest
Bip01_Head Bip01_Neck
eye_left_bone Bip01_Head
eye_right_bone Bip01_Head
L_forearm L_humerus
L_front_hand L_forearm
L_weapon_bone L_forearm
L_front_hand01_01 L_front_hand
L_front_hand02_01 L_front_hand
L_front_hand03_01 L_front_hand
L_front_hand01_02 L_front_hand01_01
L_front_hand02_02 L_front_hand02_01
L_front_hand03_02 L_front_hand03_01
R_forearm R_humerus
R_front_hand R_forearm
R_weapon_bone R_forearm
R_front_hand01_01 R_front_hand
R_front_hand02_01 R_front_hand
R_front_hand03_01 R_front_hand
R_front_hand01_02 R_front_hand01_01
R_front_hand02_02 R_front_hand02_01
R_front_hand03_02 R_front_hand03_01
null_rope01_connect L_mid_tent01
Rope1_Seg01 null_rope01_connect
Rope1_Seg02 Rope1_Seg01
Rope1_Seg03 Rope1_Seg02
Rope1_Seg04 Rope1_Seg03
Rope1_Seg05 Rope1_Seg04
Rope1_Seg06 Rope1_Seg05
Rope1_Seg07 Rope1_Seg06
Rope1_Seg09 Rope1_Seg07
L_mid_hand01 Rope1_Seg09
L_mid_hand02 Rope1_Seg09
L_mid_hand03 Rope1_Seg09
null_rope02_connect R_mid_tent01
Rope2_Seg01 null_rope02_connect
Rope2_Seg02 Rope2_Seg01
Rope2_Seg03 Rope2_Seg02
Rope2_Seg04 Rope2_Seg03
Rope2_Seg05 Rope2_Seg04
Rope2_Seg06 Rope2_Seg05
Rope2_Seg07 Rope2_Seg06
Rope2_Seg09 Rope2_Seg07
R_mid_hand01 Rope2_Seg09
R_mid_hand02 Rope2_Seg09
R_mid_hand03 Rope2_Seg09
spine02 spine01
spine03 spine02
pelvis spine03
null_rope03_connect pelvis
null_rope04_connect pelvis
Rope3_Seg01 null_rope03_connect
Rope3_Seg02 Rope3_Seg01
Rope3_Seg03 Rope3_Seg02
Rope3_Seg04 Rope3_Seg03
Rope3_Seg05 Rope3_Seg04
Rope3_Seg06 Rope3_Seg05
Rope3_Seg07 Rope3_Seg06
Rope3_Seg08 Rope3_Seg07
Rope3_Seg09 Rope3_Seg08
R_rear_hand01 Rope3_Seg09
R_rear_hand02 Rope3_Seg09
R_rear_hand03 Rope3_Seg09
Rope4_Seg01 null_rope04_connect
Rope4_Seg02 Rope4_Seg01
Rope4_Seg03 Rope4_Seg02
Rope4_Seg04 Rope4_Seg03
Rope4_Seg05 Rope4_Seg04
Rope4_Seg06 Rope4_Seg05
Rope4_Seg07 Rope4_Seg06
Rope4_Seg08 Rope4_Seg07
Rope4_Seg09 Rope4_Seg08
L_rear_hand01 Rope4_Seg09
L_rear_hand02 Rope4_Seg09
L_rear_hand03 Rope4_Seg09
[BasePosition]
#SegmentName Tx, Ty, Tz, Rx, Ry, Rz, BoneLength
MASTER 0.000000 0.000000 0.000000 -90.000000 0.000000 0.000000 10.000000 
root 0.000000 0.000000 0.000000 0.000000 0.000000 0.000000 10.000000 
chest 0.000000 0.000000 0.000000 0.000000 0.000000 0.000000 10.000000 
L_mid_tent01 0.000000 0.000000 0.000000 0.000000 0.000000 0.000000 10.000000 
R_mid_tent01 0.000000 0.000000 0.000000 0.000000 0.000000 0.000000 10.000000 
spine01 0.000000 0.000000 0.000000 0.000000 0.000000 0.000000 10.000000 
Bip01_Neck 0.000000 0.000000 0.000000 0.000000 0.000000 0.000000 10.000000 
L_humerus 0.000000 0.000000 0.000000 0.000000 0.000000 0.000000 10.000000 
R_humerus 0.000000 0.000000 0.000000 0.000000 0.000000 0.000000 10.000000 
weapon_bone 0.000000 0.000000 0.000000 0.000000 0.000000 0.000000 10.000000 
Bip01_Head 0.000000 0.000000 0.000000 0.000000 0.000000 0.000000 10.000000 
eye_left_bone 0.000000 0.000000 0.000000 0.000000 0.000000 0.000000 10.000000 
eye_right_bone 0.000000 0.000000 0.000000 0.000000 0.000000 0.000000 10.000000 
L_forearm 0.000000 0.000000 0.000000 0.000000 0.000000 0.000000 10.000000 
L_front_hand 0.000000 0.000000 0.000000 0.000000 0.000000 0.000000 10.000000 
L_weapon_bone 0.000000 0.000000 0.000000 0.000000 0.000000 0.000000 10.000000 
L_front_hand01_01 0.000000 0.000000 0.000000 0.000000 0.000000 0.000000 10.000000 
L_front_hand02_01 0.000000 0.000000 0.000000 0.000000 0.000000 0.000000 10.000000 
L_front_hand03_01 0.000000 0.000000 0.000000 0.000000 0.000000 0.000000 10.000000 
L_front_hand01_02 0.000000 0.000000 0.000000 0.000000 0.000000 0.000000 10.000000 
L_front_hand02_02 0.000000 0.000000 0.000000 0.000000 0.000000 0.000000 10.000000 
L_front_hand03_02 0.000000 0.000000 0.000000 0.000000 0.000000 0.000000 10.000000 
R_forearm 0.000000 0.000000 0.000000 0.000000 0.000000 0.000000 10.000000 
R_front_hand 0.000000 0.000000 0.000000 0.000000 0.000000 0.000000 10.000000 
R_weapon_bone 0.000000 0.000000 0.000000 0.000000 0.000000 0.000000 10.000000 
R_front_hand01_01 0.000000 0.000000 0.000000 0.000000 0.000000 0.000000 10.000000 
R_front_hand02_01 0.000000 0.000000 0.000000 0.000000 0.000000 0.000000 10.000000 
R_front_hand03_01 0.000000 0.000000 0.000000 0.000000 0.000000 0.000000 10.000000 
R_front_hand01_02 0.000000 0.000000 0.000000 0.000000 0.000000 0.000000 10.000000 
R_front_hand02_02 0.000000 0.000000 0.000000 0.000000 0.000000 0.000000 10.000000 
R_front_hand03_02 0.000000 0.000000 0.000000 0.000000 0.000000 0.000000 10.000000 
null_rope01_connect 0.000000 0.000000 0.000000 0.000000 0.000000 0.000000 10.000000 
Rope1_Seg01 0.000000 0.000000 0.000000 0.000000 0.000000 0.000000 10.000000 
Rope1_Seg02 0.000000 0.000000 0.000000 0.000000 0.000000 0.000000 10.000000 
Rope1_Seg03 0.000000 0.000000 0.000000 0.000000 0.000000 0.000000 10.000000 
Rope1_Seg04 0.000000 0.000000 0.000000 0.000000 0.000000 0.000000 10.000000 
Rope1_Seg05 0.000000 0.000000 0.000000 0.000000 0.000000 0.000000 10.000000 
Rope1_Seg06 0.000000 0.000000 0.000000 0.000000 0.000000 0.000000 10.000000 
Rope1_Seg07 0.000000 0.000000 0.000000 0.000000 0.000000 0.000000 10.000000 
Rope1_Seg09 0.000000 0.000000 0.000000 0.000000 0.000000 0.000000 10.000000 
L_mid_hand01 0.000000 0.000000 0.000000 0.000000 0.000000 0.000000 10.000000 
L_mid_hand02 0.000000 0.000000 0.000000 0.000000 0.000000 0.000000 10.000000 
L_mid_hand03 0.000000 0.000000 0.000000 0.000000 0.000000 0.000000 10.000000 
null_rope02_connect 0.000000 0.000000 0.000000 0.000000 0.000000 0.000000 10.000000 
Rope2_Seg01 0.000000 0.000000 0.000000 0.000000 0.000000 0.000000 10.000000 
Rope2_Seg02 0.000000 0.000000 0.000000 0.000000 0.000000 0.000000 10.000000 
Rope2_Seg03 0.000000 0.000000 0.000000 0.000000 0.000000 0.000000 10.000000 
Rope2_Seg04 0.000000 0.000000 0.000000 0.000000 0.000000 0.000000 10.000000 
Rope2_Seg05 0.000000 0.000000 0.000000 0.000000 0.000000 0.000000 10.000000 
Rope2_Seg06 0.000000 0.000000 0.000000 0.000000 0.000000 0.000000 10.000000 
Rope2_Seg07 0.000000 0.000000 0.000000 0.000000 0.000000 0.000000 10.000000 
Rope2_Seg09 0.000000 0.000000 0.000000 0.000000 0.000000 0.000000 10.000000 
R_mid_hand01 0.000000 0.000000 0.000000 0.000000 0.000000 0.000000 10.000000 
R_mid_hand02 0.000000 0.000000 0.000000 0.000000 0.000000 0.000000 10.000000 
R_mid_hand03 0.000000 0.000000 0.000000 0.000000 0.000000 0.000000 10.000000 
spine02 0.000000 0.000000 0.000000 0.000000 0.000000 0.000000 10.000000 
spine03 0.000000 0.000000 0.000000 0.000000 0.000000 0.000000 10.000000 
pelvis 0.000000 0.000000 0.000000 0.000000 0.000000 0.000000 10.000000 
null_rope03_connect 0.000000 0.000000 0.000000 0.000000 0.000000 0.000000 10.000000 
null_rope04_connect 0.000000 0.000000 0.000000 0.000000 0.000000 0.000000 10.000000 
Rope3_Seg01 0.000000 0.000000 0.000000 0.000000 0.000000 0.000000 10.000000 
Rope3_Seg02 0.000000 0.000000 0.000000 0.000000 0.000000 0.000000 10.000000 
Rope3_Seg03 0.000000 0.000000 0.000000 0.000000 0.000000 0.000000 10.000000 
Rope3_Seg04 0.000000 0.000000 0.000000 0.000000 0.000000 0.000000 10.000000 
Rope3_Seg05 0.000000 0.000000 0.000000 0.000000 0.000000 0.000000 10.000000 
Rope3_Seg06 0.000000 0.000000 0.000000 0.000000 0.000000 0.000000 10.000000 
Rope3_Seg07 0.000000 0.000000 0.000000 0.000000 0.000000 0.000000 10.000000 
Rope3_Seg08 0.000000 0.000000 0.000000 0.000000 0.000000 0.000000 10.000000 
Rope3_Seg09 0.000000 0.000000 0.000000 0.000000 0.000000 0.000000 10.000000 
R_rear_hand01 0.000000 0.000000 0.000000 0.000000 0.000000 0.000000 10.000000 
R_rear_hand02 0.000000 0.000000 0.000000 0.000000 0.000000 0.000000 10.000000 
R_rear_hand03 0.000000 0.000000 0.000000 0.000000 0.000000 0.000000 10.000000 
Rope4_Seg01 0.000000 0.000000 0.000000 0.000000 0.000000 0.000000 10.000000 
Rope4_Seg02 0.000000 0.000000 0.000000 0.000000 0.000000 0.000000 10.000000 
Rope4_Seg03 0.000000 0.000000 0.000000 0.000000 0.000000 0.000000 10.000000 
Rope4_Seg04 0.000000 0.000000 0.000000 0.000000 0.000000 0.000000 10.000000 
Rope4_Seg05 0.000000 0.000000 0.000000 0.000000 0.000000 0.000000 10.000000 
Rope4_Seg06 0.000000 0.000000 0.000000 0.000000 0.000000 0.000000 10.000000 
Rope4_Seg07 0.000000 0.000000 0.000000 0.000000 0.000000 0.000000 10.000000 
Rope4_Seg08 0.000000 0.000000 0.000000 0.000000 0.000000 0.000000 10.000000 
Rope4_Seg09 0.000000 0.000000 0.000000 0.000000 0.000000 0.000000 10.000000 
L_rear_hand01 0.000000 0.000000 0.000000 0.000000 0.000000 0.000000 10.000000 
L_rear_hand02 0.000000 0.000000 0.000000 0.000000 0.000000 0.000000 10.000000 
L_rear_hand03 0.000000 0.000000 0.000000 0.000000 0.000000 0.000000 10.000000 
#Beginning of Data. Separated by tabs
#Fr	Tx	Ty	Tz	Rx	Ry	Rz	SF
[MASTER]
10 -960.009705 -33.786697 762.793823 0.001660 0.001660 0.001660 1226.627319
11 -1084.830444 -47.854530 992.035034 0.001660 0.001660 0.001660 1470.809448
[root]
10 23.469786 -78.814880 1308.661621 -125.001083 -19.186586 -54.372501 1311.242798
11 29.905254 -75.963585 1092.952759 -128.801941 -18.312563 -56.134979 1095.997437
[chest]
10 -84.512650 -34.090519 0.000000 -12.684175 -6.669200 172.753784 91.129311
11 -84.512650 -34.090519 0.000000 -15.954294 -8.850378 173.170395 91.129311
[L_mid_tent01]
10 27.299122 22.179176 -249.918716 -0.053957 9.925672 70.102875 252.381714
11 27.299124 22.179180 -249.918716 -0.942395 15.651793 68.769485 252.381714
[R_mid_tent01]
10 23.228794 24.509907 226.238495 170.044281 -22.402943 66.611389 228.744751
11 23.228794 24.509907 226.238495 171.441574 -25.223778 62.099098 228.744751
[spine01]
10 -0.361383 -0.195265 0.000000 0.001955 0.001299 22.808144 0.410763
11 -0.361383 -0.195265 0.000000 0.001956 0.001298 22.850199 0.410763
[Bip01_Neck]
10 165.484543 71.581718 0.000119 176.643677 -1.657967 43.431911 180.302734
11 165.484543 71.581718 0.000119 176.643677 -1.657967 43.431911 180.302734
[L_humerus]
10 -13.983130 -135.272980 -120.471481 138.211960 78.224846 -130.763077 181.680161
11 -13.983130 -135.272980 -120.471481 161.951019 64.211372 -105.906693 181.680161
[R_humerus]
10 -13.983309 -135.273102 125.287651 -172.439240 -66.725021 -92.491844 184.909012
11 -13.983309 -135.273102 125.287651 -176.407883 -51.479542 -88.259590 184.909012
[weapon_bone]
10 235.964890 -300.705902 0.000000 0.000000 -89.951546 -128.212341 382.234833
11 235.964890 -300.705902 0.000000 0.000000 -89.951546 -128.212341 382.234833
[Bip01_Head]
10 213.495255 185.573410 13.612068 11.972374 4.199401 -43.860649 283.201355
11 213.611435 185.250549 17.781986 14.374022 1.892701 -43.876289 283.308685
[eye_left_bone]
10 -24.626970 125.451866 -64.772606 0.000000 -90.000000 -99.840431 143.318359
11 -24.626970 125.451866 -64.772606 0.000000 -90.000000 -99.840431 143.318359
[eye_right_bone]
10 -24.626970 125.451866 64.327362 0.000000 -89.965736 80.156380 143.117676
11 -24.626970 125.451866 64.327362 0.000000 -89.965736 80.156380 143.117676
[L_forearm]
10 322.776093 0.000000 -0.000119 0.000123 -0.002344 -95.987282 322.776093
11 322.776093 0.000000 -0.000119 0.000124 -0.002344 -96.067146 322.776093
[L_front_hand]
10 241.149185 -0.042021 -3.300071 179.137772 -1.836116 -27.421741 241.171753
11 241.149185 -0.042021 -3.300071 178.169632 -1.833242 -27.424309 241.171753
[L_weapon_bone]
10 156.183838 0.000000 0.000000 0.000014 0.000007 0.000001 156.183838
11 156.183838 0.000000 0.000000 0.000014 0.000007 0.000001 156.183838
[L_front_hand01_01]
10 86.095154 20.947098 -0.655860 -0.358543 -0.483275 74.401291 88.609184
11 86.095154 20.947098 -0.655860 -0.349888 -0.489669 73.293884 88.609184
[L_front_hand02_01]
10 86.935165 -11.437475 24.513514 152.896820 -59.448067 -59.624191 91.046425
11 86.935165 -11.437475 24.513514 151.249344 -58.927792 -57.708103 91.046425
[L_front_hand03_01]
10 86.637497 -14.123976 -20.424902 -152.516190 57.671085 -61.049332 90.126129
11 86.637497 -14.123976 -20.424902 -150.990372 57.154175 -59.243546 90.126129
[L_front_hand01_02]
10 71.020905 -0.000179 0.000030 0.000321 -0.002325 -105.733719 71.020905
11 71.020905 -0.000179 0.000030 0.000320 -0.002325 -105.686127 71.020905
[L_front_hand02_02]
10 71.020927 -0.000119 0.000060 0.000321 -0.002325 -105.733719 71.020927
11 71.020927 -0.000119 0.000060 0.000320 -0.002325 -105.686127 71.020927
[L_front_hand03_02]
10 71.020905 -0.000060 0.000060 0.000321 -0.002325 -105.733719 71.020905
11 71.020905 -0.000060 0.000060 0.000320 -0.002325 -105.686127 71.020905
[R_forearm]
10 322.776428 -0.000060 0.000030 0.209484 0.012913 -94.517632 322.776428
11 322.776428 -0.000060 0.000030 0.209474 0.013067 -94.601791 322.776428
[R_front_hand]
10 238.847015 -0.006795 2.210259 -2.635298 -10.645461 -26.312506 238.857239
11 238.847015 -0.006795 2.210259 -2.635298 -10.645461 -26.312506 238.857239
[R_weapon_bone]
10 155.664093 0.002503 -0.000030 0.003487 0.001180 -90.988930 155.664078
11 155.664093 0.002503 -0.000030 0.003487 0.001180 -90.988930 155.664078
[R_front_hand01_01]
10 87.624611 14.231146 22.918642 -152.176025 -59.222912 58.891872 91.683487
11 87.624611 14.231146 22.918642 -149.707169 -58.394505 56.007458 91.683487
[R_front_hand02_01]
10 89.356956 14.367283 -19.491137 152.293427 57.581059 61.021759 92.579636
11 89.356956 14.367283 -19.491137 149.983444 56.758789 58.275921 92.579636
[R_front_hand03_01]
10 87.286232 -22.307278 -0.143439 0.152228 -0.428396 -74.153709 90.091743
11 87.286232 -22.307278 -0.143439 0.134949 -0.432464 -72.452232 90.091743
[R_front_hand01_02]
10 71.020905 0.000060 0.000119 0.002323 -0.000334 106.381714 71.020905
11 71.020905 0.000060 0.000119 0.002323 -0.000334 106.381714 71.020905
[R_front_hand02_02]
10 71.020844 -0.000030 -0.000119 0.002323 -0.000334 106.381714 71.020836
11 71.020844 -0.000030 -0.000119 0.002323 -0.000334 106.381714 71.020836
[R_front_hand03_02]
10 71.020905 0.000000 0.000030 0.002323 -0.000334 106.381714 71.020905
11 71.020905 0.000000 0.000030 0.002323 -0.000334 106.381714 71.020905
[null_rope01_connect]
10 328.732483 0.000000 -0.000238 163.900879 -48.204369 -110.731842 328.732483
11 328.732483 0.000000 -0.000238 175.836426 -42.335068 -119.521294 328.732483
[Rope1_Seg01]
10 0.000039 -0.000048 0.000113 -104.593567 -36.577892 -126.743698 0.000129
11 0.000044 -0.000049 0.000109 -113.594078 -37.525116 -124.701828 0.000127
[Rope1_Seg02]
10 139.999863 -0.000179 0.000000 44.201035 11.316758 8.657095 139.999863
11 139.999863 -0.000179 0.000000 49.296925 18.177456 10.745281 139.999863
[Rope1_Seg03]
10 139.999924 0.000060 -0.000060 34.903454 30.216618 5.802871 139.999924
11 139.999924 0.000060 -0.000060 22.815359 42.558998 -2.967753 139.999924
[Rope1_Seg04]
10 139.999924 -0.000060 -0.000119 -6.924776 19.538960 -29.548286 139.999924
11 139.999924 -0.000060 -0.000119 -5.455827 11.410603 -32.907509 139.999924
[Rope1_Seg05]
10 139.999832 0.000119 -0.000060 3.278158 -7.913496 -38.364727 139.999832
11 139.999832 0.000119 -0.000060 6.076048 -4.920030 -24.020815 139.999832
[Rope1_Seg06]
10 139.999954 0.000119 -0.000060 2.302223 -0.765164 -10.510631 139.999954
11 139.999954 0.000119 -0.000060 2.275444 -0.539902 -7.161706 139.999954
[Rope1_Seg07]
10 139.999985 0.000060 0.000000 1.430462 -0.422696 -4.867097 139.999985
11 139.999985 0.000060 0.000000 1.475785 -0.429250 -3.813092 139.999985
[Rope1_Seg09]
10 121.602913 0.000119 -0.000089 -89.793175 -1.359789 0.847147 121.602913
11 121.602913 0.000119 -0.000089 -89.793175 -1.359789 0.847147 121.602913
[L_mid_hand01]
10 103.859421 1.038730 8.195221 118.511856 -58.710983 -25.432102 104.187431
11 103.859421 1.038730 8.195221 115.405022 -54.702576 -21.718946 104.187431
[L_mid_hand02]
10 105.572853 -4.139662 -10.864139 -159.626358 40.490173 -59.638317 106.211075
11 105.572853 -4.139662 -10.864139 -156.173538 38.796768 -54.226353 106.211075
[L_mid_hand03]
10 104.641464 17.579376 -3.913581 -9.285495 16.381809 63.801426 106.179977
11 104.641464 17.579376 -3.913581 -10.557028 15.605442 59.191399 106.179977
[null_rope02_connect]
10 328.732849 0.000179 -0.000119 -60.874035 38.484596 72.528030 328.732849
11 328.732849 0.000179 -0.000119 -58.397606 38.273186 72.229050 328.732849
[Rope2_Seg01]
10 0.000068 0.000124 -0.000039 2.389103 38.328480 -62.504440 0.000147
11 0.000071 0.000125 -0.000044 -3.649909 42.208763 -69.373444 0.000150
[Rope2_Seg02]
10 139.999741 -0.000060 -0.000119 2.989149 15.477465 0.862320 139.999756
11 139.999741 -0.000060 -0.000119 3.305938 20.902758 2.639325 139.999756
[Rope2_Seg03]
10 140.000107 0.000030 0.000000 1.796051 15.307991 2.728655 140.000107
11 140.000107 0.000030 0.000000 0.331304 20.472334 5.053615 140.000107
[Rope2_Seg04]
10 139.999802 0.000000 -0.000060 -0.428139 14.755070 -0.238277 139.999802
11 139.999802 0.000000 -0.000060 -2.670422 17.795767 0.104286 139.999802
[Rope2_Seg05]
10 139.999985 -0.000060 0.000119 -4.412168 31.425110 -16.560099 139.999985
11 139.999985 -0.000060 0.000119 -7.413993 30.434175 -11.250652 139.999985
[Rope2_Seg06]
10 139.999893 -0.000030 -0.000119 -1.042797 22.377110 -11.237713 139.999893
11 139.999893 -0.000030 -0.000119 -19.634865 20.017221 -4.892605 139.999893
[Rope2_Seg07]
10 139.999893 0.000060 -0.000060 0.167274 9.427262 -4.372421 139.999893
11 139.999893 0.000060 -0.000060 -53.323708 9.193571 1.227807 139.999893
[Rope2_Seg09]
10 121.338966 0.000089 -0.000060 33.793236 -1.359788 -0.847141 121.338966
11 121.338966 0.000089 -0.000060 33.793236 -1.359788 -0.847141 121.338966
[R_mid_hand01]
10 104.680779 11.144459 -10.335981 -20.898430 43.633060 63.773403 105.778534
11 104.680779 11.144459 -10.335981 -22.984863 42.734234 60.718655 105.778534
[R_mid_hand02]
10 104.070427 2.443552 8.231699 55.882172 -63.749573 31.819656 104.424065
11 104.070427 2.443552 8.231699 58.419525 -61.729706 28.969120 104.424065
[R_mid_hand03]
10 106.028137 -11.221827 -5.996406 -175.717163 15.237029 -71.372292 106.788818
11 106.028137 -11.221827 -5.996406 -175.069138 15.041784 -68.893349 106.788818
[spine02]
10 129.756927 0.001550 0.000119 -1.005955 -3.934629 6.527558 129.756927
11 129.756927 0.001550 0.000119 -0.996400 -3.936078 6.393410 129.756927
[spine03]
10 78.614044 0.081552 -4.898994 1.051202 4.144833 4.366273 78.766579
11 78.614044 0.081526 -4.898993 1.056907 4.143920 4.455623 78.766579
[pelvis]
10 169.435242 0.051022 0.000000 0.019007 -0.190285 -10.413492 169.435257
11 169.435242 0.051022 0.000000 0.018734 -0.190312 -10.249618 169.435257
[null_rope03_connect]
10 -1.257226 -2.466202 137.391083 149.463852 -50.672245 -52.815929 137.418976
11 -1.257226 -2.466202 137.391083 155.814835 -48.982662 -59.554039 137.418976
[null_rope04_connect]
10 -1.259640 -2.480268 -137.844437 149.463852 -50.672245 -52.815929 137.872513
11 -1.259640 -2.480268 -137.844437 155.814835 -48.982662 -59.554039 137.872513
[Rope3_Seg01]
10 0.000000 0.000000 0.000000 3.452856 -8.505746 -31.342260 0.000000
11 0.000000 0.000000 0.000000 2.537302 -9.307247 -30.772425 0.000000
[Rope3_Seg02]
10 139.999924 -0.000119 0.000060 0.470165 10.497523 17.977703 139.999924
11 139.999924 -0.000119 0.000060 4.018251 12.554737 17.523697 139.999924
[Rope3_Seg03]
10 139.999924 -0.000119 0.000119 -169.131317 20.751297 37.200661 139.999924
11 139.999924 -0.000119 0.000119 163.699768 27.224987 34.546886 139.999924
[Rope3_Seg04]
10 139.999924 0.000119 0.000000 1.119680 -16.701101 -23.559835 139.999924
11 139.999924 0.000119 0.000000 11.365194 -8.421494 -26.962372 139.999924
[Rope3_Seg05]
10 139.999924 -0.000238 0.000060 5.043908 -5.825608 -19.066561 139.999924
11 139.999924 -0.000238 0.000060 7.741488 -0.406939 -20.241188 139.999924
[Rope3_Seg06]
10 139.999893 -0.000119 -0.000060 3.006068 -4.473059 -16.495438 139.999893
11 139.999893 -0.000119 -0.000060 3.979612 -0.313176 -17.606544 139.999893
[Rope3_Seg07]
10 139.999771 0.000060 -0.000119 0.965158 -3.151484 -7.615307 139.999771
11 139.999771 0.000060 -0.000119 1.144929 -1.673561 -7.990242 139.999771
[Rope3_Seg08]
10 139.999985 -0.000060 0.000000 0.634180 -1.782223 -4.070018 139.999985
11 139.999985 -0.000060 0.000000 0.683020 -1.012086 -4.293528 139.999985
[Rope3_Seg09]
10 90.185997 -0.000179 -0.000060 89.793228 -1.359877 -0.847183 90.185997
11 90.185997 -0.000179 -0.000060 89.793228 -1.359877 -0.847183 90.185997
[R_rear_hand01]
10 103.366196 -6.073594 -10.757982 175.533478 -15.509886 -70.482079 104.101845
11 103.366196 -6.073594 -10.757982 176.780991 -15.726485 -68.152512 104.101845
[R_rear_hand02]
10 100.509819 12.039542 -7.992327 -17.255272 35.248016 64.724976 101.543350
11 100.509819 12.039542 -7.992327 -19.192892 34.332623 61.336498 101.543350
[R_rear_hand03]
10 101.539970 5.215704 5.435467 75.989662 -65.836792 16.686350 101.819031
11 101.539970 5.215704 5.435467 77.403587 -62.983585 15.125125 101.819031
[Rope4_Seg01]
10 0.000010 0.000028 -0.000113 -101.439354 -9.206808 -63.765617 0.000117
11 0.000010 0.000027 -0.000109 -103.248161 -11.401196 -61.353992 0.000113
[Rope4_Seg02]
10 139.999985 0.000060 0.000119 -16.150410 23.826553 -15.707967 139.999985
11 139.999985 0.000060 0.000119 -20.307146 26.448254 -19.196426 139.999985
[Rope4_Seg03]
10 139.999924 0.000000 -0.000238 -9.688762 37.046051 -18.676050 139.999924
11 139.999924 0.000000 -0.000238 -9.376245 37.203293 -17.828793 139.999924
[Rope4_Seg04]
10 139.999985 0.000000 0.000119 2.676972 17.714724 -10.285959 139.999985
11 139.999985 0.000000 0.000119 2.308598 15.245459 -8.131357 139.999985
[Rope4_Seg05]
10 139.999802 -0.000060 -0.000119 1.617688 9.840520 1.183487 139.999802
11 139.999802 -0.000060 -0.000119 1.398901 8.897477 0.934037 139.999802
[Rope4_Seg06]
10 139.999924 0.000000 0.000060 -0.368668 16.785894 10.390172 139.999924
11 139.999924 0.000000 0.000060 0.579736 14.930889 7.794965 139.999924
[Rope4_Seg07]
10 139.999802 0.000000 0.000000 -12.006679 22.266508 16.109716 139.999802
11 139.999802 0.000000 0.000000 -3.451305 23.384634 14.438860 139.999802
[Rope4_Seg08]
10 139.999924 0.000000 0.000119 -57.740795 9.540180 9.173796 139.999924
11 139.999924 0.000000 0.000119 -17.367510 12.176740 7.381528 139.999924
[Rope4_Seg09]
10 90.185791 0.000060 0.000060 -135.617828 2.228885 0.850567 90.185791
11 90.185791 0.000060 0.000060 -135.617828 2.228885 0.850567 90.185791
[L_rear_hand01]
10 101.696655 -8.392275 -7.654577 -25.776878 -29.993462 130.987778 102.329041
11 101.696655 -8.392275 -7.654577 -28.953402 -26.963970 137.645660 102.329041
[L_rear_hand02]
10 102.726799 -1.568258 5.773216 80.757904 51.892071 168.841843 102.900848
11 102.726799 -1.568258 5.773216 81.888351 45.378387 170.342453 102.900848
[L_rear_hand03]
10 104.552910 9.721220 -10.420293 -168.841812 -22.136345 -128.226944 105.519653
11 104.552910 9.721220 -10.420293 -166.314163 -20.719036 -135.138702 105.519653
